Coordinates
version=1
nRows=20
nColumns=38
inDegrees=no

Units are S.I. units (second, meters, Newtons, ...)
If the header above contains a line with 'inDegrees', this indicates whether rotational values are in degrees (yes) or radians (no).

endheader
time	pelvis_tilt	pelvis_list	pelvis_rotation	pelvis_tx	pelvis_ty	pelvis_tz	hip_flexion_r	hip_adduction_r	hip_rotation_r	knee_angle_r	ankle_angle_r	subtalar_angle_r	mtp_angle_r	hip_flexion_l	hip_adduction_l	hip_rotation_l	knee_angle_l	ankle_angle_l	subtalar_angle_l	mtp_angle_l	lumbar_extension	lumbar_bending	lumbar_rotation	arm_flex_r	arm_add_r	arm_rot_r	elbow_flex_r	pro_sup_r	wrist_flex_r	wrist_dev_r	arm_flex_l	arm_add_l	arm_rot_l	elbow_flex_l	pro_sup_l	wrist_flex_l	wrist_dev_l
50	2.9039	1.41839	-1.36141	0.669079	0.295986	0.940272	-0.223948	-0.0275586	-0.440173	0.00234144	-0.0470002	0	0	-0.227404	-0.0942433	-0.326916	0	-0.0961536	0	0	-0.306504	0.00961304	0.0611605	0.173016	-0.241329	0.550373	0.403995	1.33795	0	0	0.140543	-0.206479	0.21574	0.591885	1.5708	0	0
50.01	2.90185	1.41892	-1.35967	0.669153	0.295736	0.940246	-0.222777	-0.0274327	-0.440118	0.00255962	-0.0470719	0	0	-0.226438	-0.0945321	-0.326778	0	-0.0960738	0	0	-0.305804	0.00951338	0.061462	0.174301	-0.241552	0.549919	0.405569	1.33671	0	0	0.143144	-0.206745	0.215995	0.597228	1.5708	0	0
50.02	2.89936	1.41941	-1.35759	0.669212	0.295456	0.940232	-0.221574	-0.0272796	-0.439931	0.00279795	-0.047228	0	0	-0.225465	-0.0948178	-0.326875	0	-0.0959297	0	0	-0.305182	0.00953223	0.061829	0.175591	-0.241848	0.548841	0.407496	1.33494	0	0	0.145713	-0.206918	0.216042	0.601892	1.5708	0	0
50.03	2.89668	1.41987	-1.35561	0.669288	0.295201	0.940218	-0.220399	-0.0271304	-0.43949	0.00306	-0.0472284	0	0	-0.22464	-0.095091	-0.327245	0	-0.0957495	0	0	-0.304551	0.0095598	0.0623618	0.176726	-0.24211	0.548173	0.409202	1.33345	0	0	0.148057	-0.207112	0.216209	0.606257	1.5708	0	0
50.04	2.89346	1.4202	-1.35336	0.669422	0.294992	0.940215	-0.219388	-0.0268672	-0.438987	0.00328316	-0.0473751	0	0	-0.224053	-0.0954638	-0.32759	0	-0.0956611	0	0	-0.303951	0.00960207	0.0630986	0.177739	-0.242392	0.548233	0.410527	1.33283	0	0	0.150056	-0.207349	0.2163	0.61087	1.5708	0	0
50.05	2.89072	1.4205	-1.3517	0.669575	0.294807	0.940234	-0.218391	-0.0266723	-0.438487	0.00346101	-0.0477375	0	0	-0.223503	-0.0957831	-0.327991	0	-0.0957039	0	0	-0.303355	0.00952808	0.0637744	0.178673	-0.242675	0.549691	0.411315	1.33303	0	0	0.151692	-0.20765	0.215892	0.61564	1.5708	0	0
50.06	2.88765	1.4208	-1.34933	0.669685	0.29455	0.940255	-0.217345	-0.0263646	-0.438057	0.003651	-0.0480301	0	0	-0.222764	-0.0962191	-0.32789	0	-0.0957916	0	0	-0.302911	0.00961999	0.0641512	0.179548	-0.243016	0.552463	0.411535	1.33303	0	0	0.153589	-0.207901	0.215207	0.619428	1.5708	0	0
50.07	2.88378	1.4215	-1.34579	0.669696	0.294268	0.94023	-0.215813	-0.0260127	-0.437831	0.00392254	-0.0481496	0	0	-0.221392	-0.0966898	-0.327755	0	-0.0956683	0	0	-0.302125	0.00994073	0.0642039	0.180572	-0.243335	0.55264	0.412663	1.32989	0	0	0.155357	-0.208141	0.214929	0.622879	1.5708	0	0
50.08	2.87529	1.42504	-1.33233	0.669413	0.292213	0.940119	-0.210253	-0.0241715	-0.429501	0.00371074	-0.0523255	0	0	-0.211974	-0.0984789	-0.330194	0	-0.0902509	0	0	-0.304284	0.0102072	0.0596332	0.186	-0.243047	0.552039	0.416338	1.32573	0	0	0.165068	-0.210149	0.215537	0.627964	1.5708	0	0
50.09	2.87362	1.4253	-1.3318	0.669392	0.292125	0.940119	-0.209234	-0.0242309	-0.429864	0.00425256	-0.0518401	0	0	-0.211686	-0.0986241	-0.329859	0	-0.0903813	0	0	-0.303543	0.010142	0.0601985	0.186489	-0.243552	0.552648	0.417839	1.32336	0	0	0.16581	-0.210168	0.214197	0.63037	1.5708	0	0
50.1	2.86949	1.42589	-1.3281	0.669702	0.291731	0.940134	-0.20774	-0.0239491	-0.428648	0.00467182	-0.0521586	0	0	-0.210321	-0.0990633	-0.330091	0	-0.0900006	0	0	-0.303245	0.0104168	0.0600033	0.187822	-0.243984	0.552612	0.419519	1.32008	0	0	0.167357	-0.21051	0.213033	0.632796	1.5708	0	0
50.11	2.86898	1.42593	-1.32866	0.669691	0.291637	0.940184	-0.207035	-0.0241453	-0.429002	0.00521769	-0.0517734	0	0	-0.210258	-0.099044	-0.329788	0	-0.0909676	0	0	-0.302841	0.0102947	0.060535	0.188117	-0.244535	0.553085	0.420501	1.31704	0	0	0.16805	-0.210461	0.211622	0.633728	1.57078	0	0
50.12	2.87187	1.42439	-1.33694	0.670024	0.292947	0.940223	-0.20906	-0.0256159	-0.436082	0.00558137	-0.0477793	0	0	-0.21589	-0.0977962	-0.327171	0	-0.0955771	0	0	-0.299326	0.0101781	0.0645908	0.185141	-0.244508	0.543413	0.419283	1.33194	0	0	0.161871	-0.209086	0.20999	0.632832	1.57067	0	0
50.13	2.87191	1.42494	-1.33741	0.670015	0.292616	0.940211	-0.207501	-0.0261288	-0.435967	0.0065243	-0.047238	0	0	-0.214739	-0.0976484	-0.326246	0	-0.0951848	0	0	-0.299193	0.0101088	0.0641518	0.186223	-0.246334	0.550259	0.423205	1.31044	0	0	0.162989	-0.209037	0.208219	0.632995	1.56871	0	0
50.14	2.86986	1.42559	-1.33648	0.670101	0.292385	0.94019	-0.205552	-0.0265457	-0.435787	0.00787642	-0.0470754	0	0	-0.213734	-0.0977047	-0.32657	0	-0.0947735	0	0	-0.298679	0.0100503	0.064604	0.186837	-0.246899	0.55005	0.424591	1.30875	0	0	0.163784	-0.209012	0.206434	0.632574	1.56842	0	0
50.15	2.86639	1.42625	-1.33422	0.670201	0.292169	0.940194	-0.203462	-0.0267178	-0.435075	0.00988676	-0.0445368	0	0	-0.212669	-0.097951	-0.327207	0	-0.0943201	0	0	-0.298121	0.0101854	0.0650168	0.187491	-0.247396	0.54977	0.425614	1.30704	0	0	0.164305	-0.209027	0.204449	0.631577	1.56866	0	0
50.16	2.86357	1.4269	-1.33249	0.670297	0.291936	0.940206	-0.201545	-0.0268714	-0.433637	0.0118391	-0.0409284	0	0	-0.211533	-0.0981065	-0.328059	0	-0.0940078	0	0	-0.29768	0.0102599	0.0651693	0.188253	-0.247785	0.549146	0.426532	1.30505	0	0	0.16469	-0.209152	0.202811	0.6304	1.5691	0	0
50.17	2.86298	1.42763	-1.33312	0.670403	0.291735	0.940203	-0.199889	-0.0274489	-0.433815	0.0119973	-0.0443129	0	0	-0.210491	-0.0978494	-0.329235	0	-0.0937876	0	0	-0.297203	0.00999528	0.0653271	0.188884	-0.24821	0.548902	0.427326	1.30307	0	0	0.164864	-0.209348	0.201465	0.629168	1.56966	0	0
50.18	2.86205	1.42838	-1.33352	0.670496	0.291569	0.94019	-0.198174	-0.0279904	-0.433879	0.0124275	-0.0465859	0	0	-0.209463	-0.0976217	-0.330342	0	-0.0935906	0	0	-0.29668	0.00981525	0.0656237	0.189377	-0.248767	0.54904	0.427935	1.30112	0	0	0.164896	-0.209411	0.199787	0.627419	1.57023	0	0
50.19	2.86042	1.42924	-1.3333	0.670578	0.291432	0.940177	-0.196264	-0.0284841	-0.433516	0.0135014	-0.0465479	0	0	-0.208388	-0.0974255	-0.331619	0	-0.0931607	0	0	-0.296039	0.00977294	0.0659496	0.189613	-0.249494	0.549083	0.428758	1.29897	0	0	0.164835	-0.209278	0.19739	0.624461	1.57053	0	0
